<?xml version="1.0" encoding="UTF-8" standalone="no"?>
<!-- Created with Inkscape (http://www.inkscape.org/) -->

<svg
   width="200.0px"
   height="200.0px"
   viewBox="0 0 200.0 200.0"
   version="1.1"
   id="SVGRoot"
   sodipodi:docname="favicon-no-bg.svg"
   inkscape:export-filename="/home/ondra/HTML/favicon-no-bg.png"
   inkscape:export-xdpi="96"
   inkscape:export-ydpi="96"
   inkscape:version="1.1.2 (0a00cf5339, 2022-02-04)"
   xmlns:inkscape="http://www.inkscape.org/namespaces/inkscape"
   xmlns:sodipodi="http://sodipodi.sourceforge.net/DTD/sodipodi-0.dtd"
   xmlns="http://www.w3.org/2000/svg"
   xmlns:svg="http://www.w3.org/2000/svg">
  <sodipodi:namedview
     id="namedview74"
     pagecolor="#ffffff"
     bordercolor="#666666"
     borderopacity="1.0"
     inkscape:pageshadow="2"
     inkscape:pageopacity="0.0"
     inkscape:pagecheckerboard="0"
     inkscape:document-units="px"
     showgrid="true"
     inkscape:zoom="2.8578563"
     inkscape:cx="57.735583"
     inkscape:cy="96.750841"
     inkscape:window-width="1920"
     inkscape:window-height="1016"
     inkscape:window-x="0"
     inkscape:window-y="0"
     inkscape:window-maximized="1"
     inkscape:current-layer="layer1">
    <inkscape:grid
       type="xygrid"
       id="grid80" />
  </sodipodi:namedview>
  <defs
     id="defs69">
    <rect
       x="40"
       y="65"
       width="70"
       height="70"
       id="rect18703" />
    <rect
       x="0"
       y="0"
       width="200"
       height="200"
       id="rect17619" />
    <rect
       x="0"
       y="0"
       width="200"
       height="200"
       id="rect6267" />
  </defs>
  <g
     inkscape:label="Vrstva 1"
     inkscape:groupmode="layer"
     id="layer1"
     style="display:inline">
    <text
       xml:space="preserve"
       id="text6265"
       style="font-style:normal;font-variant:normal;font-weight:normal;font-stretch:normal;font-size:40px;line-height:1.25;font-family:Quantum;-inkscape-font-specification:Quantum;white-space:pre;shape-inside:url(#rect6267)"
       transform="matrix(2.5555462,0,0,8.7058327,-0.43555295,-123.64111)" />
    <text
       xml:space="preserve"
       id="text17617"
       style="font-style:normal;font-variant:normal;font-weight:normal;font-stretch:normal;font-size:40px;line-height:1.25;font-family:Quantum;-inkscape-font-specification:Quantum;white-space:pre;shape-inside:url(#rect17619)" />
    <path
       style="fill:#ededed;fill-opacity:1;stroke-width:1.39416"
       d="M 42.168,199.63142 C 34.972827,198.45939 29.683656,195.8803 23.911317,190.72917 14.698328,182.50767 8.8105909,171.13545 4.7025003,153.62717 -1.6196684,126.68271 -1.8722967,79.670647 4.1489015,50.606964 9.6160088,24.217818 21.172772,7.6628833 37.647436,2.6206846 42.144982,1.244176 45.421655,1.0108066 58.159343,1.1597972 68.811474,1.2843934 70.325896,1.3751479 73.049068,2.0520915 92.779529,6.9568166 105.46916,27.29249 110.43294,61.961327 c 2.92015,20.395315 3.23253,49.386153 0.77293,71.732083 -4.41901,40.14751 -18.772192,62.86727 -41.771593,66.12059 -3.803257,0.53798 -23.658971,0.40502 -27.266277,-0.18258 z M 70.000057,165 c 13.361346,-3.13164 20.057249,-15.10854 23.038516,-41.20877 0.99706,-8.729 0.988372,-37.580629 -0.014,-46.433747 -2.165305,-19.124621 -6.039285,-29.782918 -13.104012,-36.052411 -2.864404,-2.541975 -6.88486,-4.55272 -10.408227,-5.205443 -1.211379,-0.22442 -6.717193,-0.381748 -13.359453,-0.381748 -12.442171,0 -13.982508,0.181657 -18.379427,2.167562 -3.768724,1.702174 -8.152755,5.943423 -10.59955,10.254336 -4.155131,7.320767 -6.43601,16.486742 -7.967177,32.017005 -0.675689,6.853339 -0.682314,34.441076 -0.01002,41.464646 2.36641,24.72008 7.82653,36.85719 18.829358,41.85514 3.989557,1.81222 5.654701,1.9979 18.202502,2.02974 C 65.366606,165.52951 68.182541,165.42601 70,165 Z"
       id="path28413" />
    <path
       style="fill:#ededed;fill-opacity:1;stroke-width:1.36264"
       d="m 176.67338,200.00014 c -27.35995,-0.31808 -31.38684,-0.53483 -35.42195,-1.90655 -13.21815,-4.49343 -22.61699,-13.40343 -29.47258,-27.93967 -2.97091,-6.29935 -7.32046,-20.11571 -6.6809,-21.22185 0.44281,-0.76585 2.12527,-11.16606 2.73058,-16.87917 1.12446,-10.61325 1.4579,-17.86439 1.4579,-31.70513 0,-18.554812 -0.91615,-30.830343 -3.31571,-44.427479 L 105,50.419656 l 1.13314,-4.192 c 5.36262,-19.838541 14.21659,-33.167879 26.81628,-40.3709131 2.65687,-1.5188943 7.80678,-3.5883228 10.76684,-4.3265265 2.9539,-0.73666896 14.69205,-1.1573926 38.39955,-1.37633188 l 19.6481,-0.18145072 V 17.388056 34.803679 L 178.40639,34.90184 155.04886,35 l -2.75048,1.298074 c -9.54954,4.506845 -14.92664,14.522592 -17.6484,32.873004 -1.41539,9.542725 -1.59675,13.932599 -1.41902,34.347222 0.1818,20.88048 0.38933,23.69278 2.53463,34.34721 2.83367,14.07313 8.04108,22.36262 16.5552,26.35356 l 2.39835,1.12422 23.43015,0.21677 c 12.88657,0.11922 23.47164,0.23811 23.52238,0.26421 0.0507,0.0261 0.0923,7.81519 0.0923,17.30911 0,13.60488 -0.0977,17.24962 -0.46122,17.20471 -0.25367,-0.0313 -11.33686,-0.18341 -24.62931,-0.33794 z"
       id="path2292" />
  </g>
</svg>
